<?xml version="1.0" encoding="UTF-8" standalone="no"?>
<svg
   viewBox="0 0 300 200"
   version="1.1"
   id="svg77"
   sodipodi:docname="erro404.svg"
   inkscape:version="1.1.1 (3bf5ae0d25, 2021-09-20)"
   xmlns:inkscape="http://www.inkscape.org/namespaces/inkscape"
   xmlns:sodipodi="http://sodipodi.sourceforge.net/DTD/sodipodi-0.dtd"
   xmlns="http://www.w3.org/2000/svg"
   xmlns:svg="http://www.w3.org/2000/svg"
   xmlns:rdf="http://www.w3.org/1999/02/22-rdf-syntax-ns#"
   xmlns:cc="http://creativecommons.org/ns#"
   xmlns:dc="http://purl.org/dc/elements/1.1/">
  <sodipodi:namedview
     id="namedview79"
     pagecolor="#ffffff"
     bordercolor="#666666"
     borderopacity="1.0"
     inkscape:pageshadow="2"
     inkscape:pageopacity="0.0"
     inkscape:pagecheckerboard="0"
     showgrid="false"
     inkscape:snap-global="false"
     inkscape:zoom="2.455"
     inkscape:cx="126.88391"
     inkscape:cy="101.222"
     inkscape:window-width="1366"
     inkscape:window-height="699"
     inkscape:window-x="-8"
     inkscape:window-y="-8"
     inkscape:window-maximized="1"
     inkscape:current-layer="svg77" />
  <defs
     id="defs47">
    <style
       id="style45">.a{fill:#0000;}.b{fill:#00000;}.c{fill:#9b87c4;}.d,.e{fill:#fff;}.e{stroke:#aebbcb;stroke-linejoin:bevel;}.f{fill:#ff0000;}</style>
  </defs>
  <title
     id="title49">erro404</title>
  <path
     class="a"
     d="M149.25,27.48c-18.82-14.1-79.41-6-121,0V188.25c39.24-5.1,98.14-13.9,121,0,22.91-13.9,81.8-5.1,121,0V27.48C228.66,21.52,168.07,13.37,149.25,27.48Z"
     id="path51"
     style="fill:#ff0000" />
  <path
     class="b"
     d="M33.5,161v22.24c37.53-4.88,93.85-13.29,115.75,0,21.9-13.29,78.22-4.88,115.75,0V161Z"
     id="path53"
     style="fill:#ff0000" />
  <path
     class="c"
     d="M33.5,165.25v12.24c37.53-4.88,93.85-13.29,115.75,0,21.9-13.29,78.22-4.88,115.75,0V165.25Z"
     id="path55"
     style="fill:#ff0000" />
  <path
     class="d"
     d="M34,24.43C59.13,20.84,87.81,17,111.13,17c18.57,0,31.29,2.48,37.82,7.37l.3.23.3-.23C156.08,19.51,168.8,17,187.37,17c23.32,0,52,3.81,77.13,7.4v149l-6.2-.81c-21.21-2.79-47.6-6.26-69.83-6.26-18.36,0-31.19,2.31-39.22,7.06-8-4.75-20.86-7.06-39.22-7.06-22.23,0-48.63,3.47-69.84,6.27l-6.2.81Z"
     id="path57" />
  <path
     class="c"
     d="M187.37,17.53c23.16,0,51.63,3.76,76.63,7.34v148l-5.63-.74c-21.22-2.79-47.63-6.27-69.9-6.27-18.26,0-31.1,2.29-39.22,7-8.12-4.7-21-7-39.22-7-22.27,0-48.68,3.48-69.9,6.27l-5.63.74v-148c25-3.57,53.48-7.34,76.63-7.34,18.46,0,31.08,2.45,37.52,7.27l.6.45.6-.45c6.44-4.82,19.06-7.27,37.52-7.27m0-1c-16.74,0-30.76,2-38.12,7.47-7.35-5.51-21.38-7.47-38.12-7.47C86.92,16.53,57,20.63,33.5,24V174c22.57-2.93,51.94-7.15,76.53-7.15,16.3,0,30.49,1.85,39.22,7.15,8.73-5.3,22.92-7.15,39.22-7.15,24.59,0,54,4.21,76.53,7.15V24c-23.54-3.37-53.42-7.47-77.63-7.47Z"
     id="path59"
     style="fill:#ff0000" />
  <path
     class="e"
     d="M158.66,160c0-4.6,3.12-10.22,7-12.55-3.85,2.33-7,.49-7-4.12s3.12-10.22,7-12.55c-3.85,2.33-7,.49-7-4.12s3.12-10.22,7-12.55c-3.85,2.33-7,.49-7-4.12s3.12-10.22,7-12.55c-3.85,2.33-7,.49-7-4.12s3.12-10.22,7-12.55c-3.85,2.33-7,.49-7-4.12s3.12-10.22,7-12.55c-3.85,2.33-7,.49-7-4.12s3.12-10.22,7-12.55c-3.85,2.33-7,.49-7-4.12s3.12-10.22,7-12.55c-3.85,2.33-7,.49-7-4.12s3.12-10.22,7-12.55c-7.9-.28-13.81,2.37-16.37,9.91V174c3.06-6.44,6.59-9.52,10.44-10.31C160.92,163.69,158.66,164.58,158.66,160Z"
     id="path61"
     style="stroke:#ff0000;stroke-opacity:0.94901961" />
  <text
     xml:space="preserve"
     style="font-style:normal;font-variant:normal;font-weight:normal;font-stretch:normal;font-size:40px;line-height:1.25;font-family:'Adobe Fangsong Std';-inkscape-font-specification:'Adobe Fangsong Std';fill:#000000;fill-opacity:1;stroke:none"
     x="78.615074"
     y="65.173119"
     id="text23237"><tspan
       sodipodi:role="line"
       x="78.615074"
       y="65.173119"
       id="tspan23743" /></text>
  <text
     xml:space="preserve"
     style="font-style:normal;font-variant:normal;font-weight:normal;font-stretch:normal;font-size:32px;line-height:1.25;font-family:'Kozuka Gothic Pr6N';-inkscape-font-specification:'Kozuka Gothic Pr6N';fill:#000000;fill-opacity:1;stroke:none"
     x="176.37476"
     y="62.321793"
     id="text26599"><tspan
       sodipodi:role="line"
       x="176.37476"
       y="62.321793"
       style="font-style:normal;font-variant:normal;font-weight:normal;font-stretch:normal;font-size:32px;font-family:'Kozuka Gothic Pr6N';-inkscape-font-specification:'Kozuka Gothic Pr6N';fill:#ff0000"
       id="tspan86357" /></text>
  <text
     xml:space="preserve"
     style="font-style:normal;font-variant:normal;font-weight:normal;font-stretch:normal;font-size:40px;line-height:1.25;font-family:Dosis;-inkscape-font-specification:Dosis;fill:#000000;fill-opacity:1;stroke:none"
     x="339.30753"
     y="74.949081"
     id="text40205"><tspan
       sodipodi:role="line"
       x="339.30753"
       y="74.949081"
       id="tspan40207"
       style="fill:#ff0000" /></text>
  <text
     xml:space="preserve"
     style="font-size:16px;line-height:1.25;font-family:sans-serif"
     x="97.759674"
     y="92.871689"
     id="text66451"><tspan
       sodipodi:role="line"
       x="97.759674"
       y="92.871689"
       id="tspan66453"
       style="font-style:normal;font-variant:normal;font-weight:normal;font-stretch:normal;font-family:Dosis;-inkscape-font-specification:Dosis" /></text>
  <text
     xml:space="preserve"
     style="font-size:16px;line-height:1.25;font-family:'Kozuka Gothic Pr6N';-inkscape-font-specification:'Kozuka Gothic Pr6N';font-weight:normal;font-style:normal;font-stretch:normal;font-variant:normal"
     x="83.095726"
     y="55.804482"
     id="text77749"><tspan
       sodipodi:role="line"
       id="tspan77747"
       x="83.095726"
       y="55.804482" /></text>
  <text
     xml:space="preserve"
     style="font-style:normal;font-variant:normal;font-weight:normal;font-stretch:normal;font-size:16px;line-height:1.25;font-family:'Kozuka Gothic Pr6N';-inkscape-font-specification:'Kozuka Gothic Pr6N'"
     x="105.49898"
     y="46.435844"
     id="text79781"><tspan
       sodipodi:role="line"
       id="tspan79779"
       x="105.49898"
       y="46.435844" /></text>
  <text
     xml:space="preserve"
     style="font-style:normal;font-variant:normal;font-weight:bold;font-stretch:normal;font-size:37.3333px;line-height:1.25;font-family:'Century Gothic';-inkscape-font-specification:'Century Gothic Bold';fill:#ff0000"
     x="43.991848"
     y="94.285141"
     id="text101511"><tspan
       sodipodi:role="line"
       id="tspan101509"
       x="43.991848"
       y="94.285141"
       style="font-style:normal;font-variant:normal;font-weight:bold;font-stretch:normal;font-size:37.3333px;font-family:'Century Gothic';-inkscape-font-specification:'Century Gothic Bold'">ERRO</tspan></text>
  <text
     xml:space="preserve"
     style="font-size:32px;line-height:1.25;font-family:dosis;-inkscape-font-specification:dosis"
     x="355.60083"
     y="102.64766"
     id="text104397"><tspan
       sodipodi:role="line"
       id="tspan104395"
       x="355.60083"
       y="102.64766"
       style="fill:#ff0000" /></text>
  <text
     xml:space="preserve"
     style="font-size:74.6667px;line-height:1.25;font-family:dosis;-inkscape-font-specification:dosis;stroke-width:0.930299"
     x="192.99901"
     y="124.16616"
     id="text112469"
     transform="scale(1.021501,0.97895157)"><tspan
       sodipodi:role="line"
       x="192.99901"
       y="124.16616"
       style="font-style:normal;font-variant:normal;font-weight:normal;font-stretch:normal;font-size:74.6667px;font-family:'Century Gothic';-inkscape-font-specification:'Century Gothic';fill:#ff0000;stroke-width:0.930299"
       id="tspan116283">!</tspan></text>
  <text
     xml:space="preserve"
     style="font-size:18.6667px;line-height:1.25;font-family:dosis;-inkscape-font-specification:dosis"
     x="401.22198"
     y="83.095726"
     id="text146605"><tspan
       sodipodi:role="line"
       id="tspan146603"
       x="401.22198"
       y="83.095726" /></text>
  <text
     xml:space="preserve"
     style="font-style:normal;font-variant:normal;font-weight:bold;font-stretch:normal;font-size:37.3333px;line-height:1.25;font-family:'Century Gothic';-inkscape-font-specification:'Century Gothic Bold';fill:#ff0000"
     x="57.433819"
     y="127.97556"
     id="text152089"><tspan
       sodipodi:role="line"
       id="tspan152087"
       x="57.433819"
       y="127.97556"
       style="font-style:normal;font-variant:normal;font-weight:bold;font-stretch:normal;font-size:37.3333px;font-family:'Century Gothic';-inkscape-font-specification:'Century Gothic Bold';fill:#ff0000">404</tspan></text>
  <metadata
     id="metadata190255">
    <rdf:RDF>
      <cc:Work
         rdf:about="">
        <dc:title>erro404</dc:title>
      </cc:Work>
    </rdf:RDF>
  </metadata>
</svg>
